<svg version="1.1" viewBox="0.000000 0.000000 96.000000 96.000000" xmlns="http://www.w3.org/2000/svg" xmlns:xlink="http://www.w3.org/1999/xlink" id="Icons_Thermometer" overflow="hidden"><g><path d=" M 48.000000 86.300003 C 41.500000 86.300003 35.799999 81.699997 34.400002 75.400002 C 32.900002 69.000000 36.099998 62.500000 42.000000 59.700001 L 42.000000 15.700000 C 42.000000 12.400000 44.700001 9.700000 48.000000 9.700000 C 51.299999 9.700000 54.000000 12.400000 54.000000 15.700000 L 54.000000 59.700001 C 59.900002 62.500000 63.000000 69.000000 61.599998 75.400002 C 60.099998 81.699997 54.500000 86.199997 48.000000 86.300003 L 48.000000 86.300003 Z M 60.000000 56.299999 L 60.000000 15.700000 C 60.000000 9.100000 54.599998 3.700000 48.000000 3.700000 C 41.400002 3.700000 36.000000 9.000000 36.000000 15.700000 L 36.000000 56.299999 C 29.100000 61.500000 26.299999 70.500000 29.000000 78.599998 C 31.700001 86.800003 39.400002 92.300003 48.000000 92.300003 C 56.599998 92.300003 64.300003 86.800003 67.000000 78.599998 C 69.699997 70.500000 66.900002 61.500000 60.000000 56.299999 Z"/><path d=" M 50.000000 62.500000 L 50.000000 38.299999 L 46.000000 38.299999 L 46.000000 62.500000 C 41.000000 63.500000 37.500000 68.199997 38.099998 73.300003 C 38.599998 78.400002 42.900002 82.300003 48.000000 82.300003 C 53.099998 82.300003 57.400002 78.400002 57.900002 73.300003 C 58.500000 68.199997 55.000000 63.500000 50.000000 62.500000 Z"/></g></svg>