<svg version="1.1" viewBox="0.000000 0.000000 96.000000 96.000000" xmlns="http://www.w3.org/2000/svg" xmlns:xlink="http://www.w3.org/1999/xlink" id="Icons_Compass" overflow="hidden"><path d=" M 48.000000 10.000000 C 27.000000 10.000000 10.000000 27.000000 10.000000 48.000000 C 10.000000 69.000000 27.000000 86.000000 48.000000 86.000000 C 69.000000 86.000000 86.000000 69.000000 86.000000 48.000000 C 86.000000 27.000000 69.000000 10.000000 48.000000 10.000000 Z M 48.000000 16.000000 C 65.599998 16.000000 80.000000 30.400000 80.000000 48.000000 C 80.000000 65.599998 65.599998 80.000000 48.000000 80.000000 C 30.400000 80.000000 16.000000 65.599998 16.000000 48.000000 C 16.000000 30.400000 30.400000 16.000000 48.000000 16.000000" stroke="none" stroke-width="1.000000" stroke-linecap="butt" fill="#DEEA32" fill-opacity="1.000000"/><path d=" M 32.400002 63.599998 L 54.400002 54.599998 L 63.400002 32.599998 L 41.400002 41.799999 L 32.400002 63.599998 Z M 48.000000 46.000000 C 49.200001 46.000000 50.000000 46.799999 50.000000 48.000000 C 50.000000 49.200001 49.200001 50.000000 48.000000 50.000000 C 46.799999 50.000000 46.000000 49.200001 46.000000 48.000000 C 46.000000 46.799999 46.799999 46.000000 48.000000 46.000000" stroke="none" stroke-width="1.000000" stroke-linecap="butt" fill="#DEEA32" fill-opacity="1.000000"/></svg>